<?xml version="1.0" standalone="no"?>
<!DOCTYPE svg PUBLIC "-//W3C//DTD SVG 20010904//EN"
 "http://www.w3.org/TR/2001/REC-SVG-20010904/DTD/svg10.dtd">
<svg version="1.0" xmlns="http://www.w3.org/2000/svg"
 width="288.000000pt" height="288.000000pt" viewBox="0 0 288.000000 288.000000"
 preserveAspectRatio="xMidYMid meet">
<metadata>
Created by potrace 1.14, written by Peter Selinger 2001-2017
</metadata>
<g transform="translate(0.000000,288.000000) scale(0.100000,-0.100000)"
fill="#000000" stroke="none">
<path d="M1060 2763 c0 -5 4 -13 9 -18 12 -14 42 -155 35 -166 -6 -10 7 -12
29 -3 13 5 13 9 0 35 -18 36 -14 83 9 87 21 4 39 -29 41 -74 2 -35 11 -41 37
-24 10 6 11 10 3 10 -7 0 -16 18 -19 40 -11 69 -28 79 -94 57 -3 -1 -7 11 -10
28 -3 18 -12 31 -23 33 -9 2 -17 0 -17 -5z"/>
<path d="M1379 2741 c9 -6 12 -26 10 -65 -4 -54 -3 -56 21 -55 14 0 19 3 13 6
-15 5 -17 71 -4 92 6 9 18 12 36 7 20 -5 26 -3 23 6 -3 8 -25 14 -58 15 -31 1
-48 -2 -41 -6z"/>
<path d="M1546 2724 c-9 -9 -16 -32 -16 -54 0 -50 32 -76 74 -61 33 13 34 23
1 15 -30 -7 -55 10 -55 38 0 18 4 20 45 14 43 -7 45 -6 45 16 0 13 -5 29 -12
36 -17 17 -64 15 -82 -4z m64 2 c0 -2 3 -11 6 -20 5 -13 -1 -16 -25 -16 -29 0
-41 16 -24 33 7 8 43 10 43 3z"/>
<path d="M1720 2701 c0 -6 12 -9 27 -8 22 2 29 -3 31 -20 3 -20 -1 -23 -26
-23 -45 0 -62 -10 -62 -36 0 -17 7 -25 25 -30 14 -4 29 -4 32 -1 3 3 12 0 20
-8 19 -20 34 -19 26 0 -3 9 0 36 7 62 12 42 12 47 -5 59 -21 16 -75 19 -75 5z
m46 -72 c9 -16 -20 -41 -39 -33 -9 3 -17 12 -17 19 0 22 44 33 56 14z"/>
<path d="M973 2667 c-18 -7 -40 -20 -50 -30 -17 -17 -17 -19 0 -48 9 -17 17
-39 17 -50 0 -10 4 -19 9 -19 5 0 7 -8 4 -18 -7 -30 18 -43 61 -31 47 13 68
51 43 76 -15 15 -21 15 -53 4 -26 -9 -39 -10 -47 -2 -8 8 -8 11 1 11 7 0 24
11 37 24 20 20 23 30 16 49 -6 16 -6 28 2 36 14 14 2 13 -40 -2z m11 -39 c17
-23 6 -48 -21 -48 -18 0 -34 41 -21 58 15 17 25 15 42 -10z m64 -111 c4 -20
-39 -43 -62 -34 -25 10 -19 34 12 45 34 13 46 10 50 -11z"/>
<path d="M1890 2645 c-13 -16 -8 -36 22 -77 9 -12 9 -21 2 -28 -14 -14 -44 -2
-44 16 0 16 -16 19 -24 5 -8 -12 16 -30 51 -37 37 -7 64 18 45 44 -28 38 -36
62 -25 73 8 8 17 5 32 -10 11 -11 23 -16 26 -11 5 9 -44 40 -63 40 -5 0 -15
-7 -22 -15z"/>
<path d="M796 2584 c-15 -10 -16 -14 -5 -14 30 0 64 -89 40 -104 -14 -9 -40 4
-46 22 -10 30 -42 65 -53 58 -16 -10 55 -106 78 -106 11 0 25 9 33 20 8 11 16
17 20 14 3 -3 14 -1 24 5 10 6 13 11 6 11 -6 0 -26 24 -45 54 -31 51 -34 54
-52 40z"/>
<path d="M2042 2573 c-15 -6 -42 -56 -42 -77 0 -22 40 -56 65 -56 31 0 65 41
65 78 0 45 -44 73 -88 55z m64 -28 c8 -21 -15 -74 -37 -85 -13 -7 -22 -6 -33
6 -20 20 -20 22 4 62 21 34 56 43 66 17z"/>
<path d="M1310 2488 c-92 -9 -190 -34 -286 -72 -84 -32 -206 -105 -201 -119 2
-7 23 -14 48 -17 80 -10 132 -65 133 -142 1 -42 -3 -53 -27 -74 -39 -33 -95
-33 -137 2 -49 42 -63 79 -56 146 4 37 2 58 -5 58 -18 0 -99 -73 -160 -145
-94 -110 -217 -331 -196 -352 4 -3 25 3 46 15 52 30 117 29 162 -1 65 -44 78
-110 30 -158 -24 -24 -38 -29 -76 -29 -61 0 -118 30 -139 74 -9 18 -16 39 -16
45 0 6 -7 11 -15 11 -43 0 -72 -309 -45 -480 21 -131 44 -163 69 -94 7 21 29
47 53 65 120 86 262 -31 166 -137 -53 -57 -147 -65 -200 -18 -29 27 -41 6 -24
-43 41 -115 133 -252 248 -366 48 -48 93 -87 98 -87 7 0 8 22 5 63 -7 74 11
119 64 154 124 83 220 -86 106 -186 -25 -21 -50 -32 -85 -37 -27 -4 -50 -10
-50 -15 0 -22 161 -107 277 -145 72 -23 236 -54 291 -54 31 0 28 11 -18 58
-62 66 -66 142 -10 202 22 24 36 30 68 30 33 0 45 -6 71 -35 26 -30 31 -44 31
-88 0 -57 -24 -108 -59 -127 -27 -14 -27 -40 -1 -40 54 0 225 32 295 56 122
41 281 126 270 144 -3 4 -26 11 -52 15 -39 6 -56 15 -90 51 -38 39 -43 50 -43
90 0 37 5 51 29 75 55 55 141 28 182 -57 19 -41 21 -52 11 -93 -6 -25 -7 -50
-3 -54 12 -12 114 77 174 151 79 98 114 153 159 249 45 95 41 121 -10 84 -39
-28 -125 -29 -165 -2 -74 49 -80 132 -11 177 33 22 111 14 153 -15 18 -13 39
-41 48 -62 29 -73 44 -49 73 115 13 76 13 226 0 302 -19 109 -32 154 -43 154
-7 -1 -21 -20 -32 -43 -41 -87 -151 -117 -215 -59 -103 91 67 240 185 162 34
-23 55 -26 55 -7 0 25 -100 209 -150 277 -28 38 -88 103 -132 145 -88 83 -106
85 -86 10 9 -34 8 -48 -10 -87 -38 -86 -131 -116 -185 -60 -69 72 1 206 112
214 25 2 46 8 48 14 5 15 -111 82 -207 121 -90 37 -182 60 -270 68 -36 3 -75
8 -87 11 -30 6 -30 -19 0 -43 41 -32 57 -65 57 -116 0 -60 -21 -102 -61 -123
-78 -40 -164 50 -145 151 5 23 21 50 47 76 36 36 50 61 32 58 -5 -1 -46 -6
-93 -11z m-6 -65 c-25 -33 -29 -47 -29 -103 0 -70 18 -106 71 -141 l25 -16
-37 -28 c-78 -60 -86 -186 -15 -249 28 -25 27 -33 -6 -39 -16 -3 -38 -8 -51
-12 -22 -7 -22 -6 -16 33 3 22 1 55 -5 74 -22 68 -117 129 -178 113 -22 -5
-24 -3 -17 12 14 32 16 113 4 142 -18 45 -65 83 -116 96 l-48 12 78 37 c92 44
176 73 266 91 106 21 107 21 74 -22z m316 22 c105 -21 157 -38 258 -86 83 -40
86 -42 57 -49 -76 -17 -113 -52 -135 -127 -10 -34 -10 -49 2 -84 l15 -44 -41
0 c-53 -1 -106 -27 -137 -68 -19 -26 -24 -44 -24 -94 0 -35 -3 -63 -6 -63 -3
0 -21 5 -40 11 -19 6 -40 13 -48 15 -9 3 -5 11 13 25 78 62 70 197 -16 259
-34 25 -37 29 -19 35 33 10 78 71 86 114 9 56 -2 96 -37 137 -34 39 -32 40 72
19z m-875 -299 c0 -90 66 -156 156 -156 48 0 48 0 39 -26 -14 -37 -12 -111 4
-142 22 -43 60 -73 110 -85 l45 -12 -27 -42 c-27 -42 -42 -54 -42 -31 0 19
-50 77 -80 93 -32 17 -106 20 -142 6 -13 -5 -32 -18 -43 -28 -20 -20 -20 -20
-35 25 -30 89 -140 138 -221 98 -18 -9 -34 -15 -35 -13 -6 6 59 123 104 187
45 63 149 180 161 180 3 0 6 -24 6 -54z m1435 -3 c65 -73 129 -161 169 -236
38 -71 39 -80 4 -61 -68 35 -173 3 -211 -65 -12 -21 -22 -49 -22 -62 l0 -22
-22 20 c-37 33 -64 43 -115 43 -65 0 -112 -27 -142 -80 -22 -39 -26 -42 -35
-25 -6 10 -21 30 -32 44 l-22 26 52 12 c102 26 152 130 111 234 -5 14 3 17 48
21 35 3 65 13 87 28 42 30 74 100 65 146 -3 19 -2 34 4 34 5 0 32 -26 61 -57z
m-684 -57 c30 -30 34 -40 34 -85 0 -58 -18 -100 -55 -129 -36 -29 -31 -39 23
-46 26 -3 71 -17 100 -31 30 -14 56 -25 59 -25 2 0 1 20 -3 45 -9 66 2 108 42
149 30 31 42 36 79 36 32 0 51 -7 72 -24 76 -65 -7 -216 -118 -216 -22 0 -39
-3 -39 -7 0 -5 16 -26 36 -48 19 -22 47 -61 62 -87 20 -36 29 -44 39 -36 7 6
13 16 13 23 0 38 92 105 145 105 42 0 85 -28 101 -66 14 -32 13 -39 -3 -72
-27 -54 -65 -77 -127 -77 -33 0 -62 6 -79 18 -15 9 -30 18 -34 20 -3 1 -7 -49
-7 -110 -1 -104 3 -128 19 -104 3 5 25 17 49 26 36 14 50 15 86 5 65 -17 100
-58 100 -114 0 -39 -4 -48 -33 -70 -71 -55 -181 -15 -216 77 -14 37 -27 34
-50 -11 -10 -20 -37 -58 -60 -84 -23 -25 -41 -49 -41 -52 0 -3 14 -6 30 -6
119 0 202 -142 128 -217 -53 -53 -140 -30 -181 48 -14 27 -17 47 -12 97 3 34
3 62 1 62 -3 0 -20 -9 -38 -19 -18 -11 -63 -27 -100 -37 -38 -9 -68 -20 -68
-25 0 -4 10 -15 21 -23 76 -53 81 -177 9 -233 -21 -17 -81 -16 -106 2 -26 18
-54 74 -54 109 0 37 35 102 65 122 14 9 25 20 25 24 0 5 -24 13 -52 19 -29 6
-77 22 -105 36 -54 25 -72 20 -53 -14 38 -73 -41 -201 -125 -201 -48 0 -94 49
-95 101 0 67 79 149 145 149 17 0 35 3 38 6 4 4 -14 30 -40 58 -25 28 -53 66
-61 84 -9 17 -20 32 -26 32 -6 -1 -20 -19 -31 -42 -25 -52 -59 -78 -113 -85
-75 -10 -132 34 -132 101 0 37 53 92 100 104 46 11 103 2 129 -22 10 -9 22
-16 27 -16 6 0 11 197 5 228 -1 2 -14 -6 -31 -18 -114 -81 -291 39 -210 142
60 77 188 51 231 -47 11 -25 23 -45 27 -45 5 0 18 20 30 45 12 25 40 65 62 89
22 23 37 46 33 49 -3 4 -22 7 -40 7 -48 0 -89 24 -118 70 -34 53 -33 101 3
139 44 48 100 45 152 -7 44 -44 60 -98 42 -146 -17 -43 -1 -53 40 -28 19 12
64 27 101 34 37 7 67 16 67 21 0 5 -14 20 -30 34 -75 63 -81 155 -13 217 41
38 86 35 129 -8z m-1058 -470 c49 -82 178 -100 248 -35 l22 20 7 -28 c12 -50
45 -91 89 -112 53 -26 96 -27 146 -1 l40 20 0 -56 c0 -30 -3 -54 -8 -52 -83
36 -104 41 -142 29 -54 -16 -107 -65 -121 -111 l-11 -38 -35 24 c-45 30 -90
38 -141 25 -43 -12 -102 -62 -102 -87 0 -8 -4 -14 -9 -14 -27 0 -41 264 -20
387 6 35 12 63 14 63 2 0 12 -16 23 -34z m2021 -46 c20 -120 6 -370 -20 -370
-5 0 -9 4 -9 10 0 5 -13 25 -30 43 -59 67 -167 71 -232 9 l-28 -26 0 31 c0 98
-141 169 -237 119 l-33 -17 0 56 0 55 40 -20 c21 -11 54 -20 72 -20 68 1 158
78 158 136 0 28 12 31 31 8 59 -71 215 -47 250 39 16 38 26 24 38 -53z m-1390
-402 c17 -23 31 -45 31 -49 0 -3 -21 -9 -46 -12 -49 -5 -85 -32 -111 -80 -17
-33 -19 -116 -4 -145 15 -28 16 -28 -27 -24 -53 5 -104 -19 -138 -64 -24 -30
-29 -47 -29 -91 0 -29 -3 -53 -7 -53 -10 0 -95 89 -139 146 -40 52 -129 201
-129 217 0 4 14 0 31 -9 37 -19 108 -21 141 -4 42 22 78 63 89 102 l10 38 41
-27 c81 -54 197 -26 235 57 10 22 19 40 20 40 1 0 15 -19 32 -42z m783 -17
c23 -41 72 -65 134 -64 48 0 114 26 114 45 0 22 18 4 24 -23 8 -43 40 -84 80
-103 39 -18 118 -21 148 -5 33 18 32 3 -7 -68 -44 -81 -126 -191 -187 -250
l-44 -43 0 53 c0 97 -70 166 -168 167 -32 0 -37 3 -31 18 4 9 10 38 12 64 4
36 0 55 -18 87 -28 50 -58 71 -115 79 l-44 7 33 47 c34 50 35 50 69 -11z
m-544 -153 c37 -10 40 -18 11 -36 -27 -17 -49 -71 -49 -120 0 -51 38 -122 76
-141 l30 -15 -29 -21 c-84 -57 -103 -171 -41 -245 23 -27 24 -30 7 -30 -34 0
-168 29 -223 48 -74 26 -190 84 -185 93 3 3 19 9 37 13 47 9 75 31 99 77 21
41 23 101 5 155 -7 18 -4 20 23 16 100 -14 193 86 177 190 -6 36 -5 40 11 33
10 -4 33 -11 51 -17z m307 -42 c0 -50 5 -71 21 -93 33 -44 92 -74 142 -71 23
2 42 3 42 2 0 -1 -7 -18 -16 -39 -18 -44 -12 -96 17 -143 22 -37 74 -72 107
-72 98 0 -141 -107 -315 -140 -34 -7 -66 -11 -72 -9 -7 3 -1 19 14 40 54 75
38 175 -37 229 -33 24 -36 29 -20 34 32 11 70 59 83 108 16 59 1 113 -42 156
l-31 30 48 15 c27 8 51 15 54 16 3 1 5 -28 5 -63z"/>
<path d="M2220 2480 c0 -6 -18 -30 -40 -54 -30 -32 -37 -45 -28 -54 14 -14 29
-16 26 -3 -6 19 43 71 67 71 36 0 32 -31 -8 -74 -23 -24 -30 -39 -23 -46 14
-14 26 -13 26 3 0 8 10 22 21 33 45 41 44 94 -2 94 -11 0 -19 6 -19 14 0 8 -4
18 -10 21 -5 3 -10 1 -10 -5z"/>
<path d="M606 2455 c-29 -22 -25 -73 8 -102 34 -29 51 -29 81 2 32 31 31 46
-1 84 -28 34 -58 39 -88 16z m55 -18 c28 -22 42 -56 28 -73 -17 -21 -32 -17
-62 14 -37 38 -36 72 2 72 9 0 23 -6 32 -13z"/>
<path d="M495 2347 c-4 -14 -16 -28 -28 -31 -19 -5 -17 -8 21 -36 24 -17 46
-40 50 -51 8 -20 8 -20 26 0 15 17 16 21 4 21 -19 0 -68 52 -68 73 0 9 7 17
16 17 17 0 15 21 -4 28 -6 2 -14 -8 -17 -21z"/>
<path d="M1403 2320 c-31 -13 -40 -55 -18 -80 20 -22 65 -26 83 -8 13 13 16
57 4 74 -11 17 -44 24 -69 14z"/>
<path d="M2396 2241 c-7 -11 30 -58 39 -49 4 4 -2 19 -13 33 -11 14 -23 21
-26 16z"/>
<path d="M366 2190 l-12 -31 -26 21 c-31 24 -44 25 -52 5 -3 -9 0 -15 10 -15
19 0 141 -86 147 -103 2 -7 9 -3 16 11 9 18 9 22 -1 22 -20 0 -80 58 -75 73 8
24 45 18 80 -13 35 -30 36 -31 47 -10 8 15 8 20 -2 20 -7 0 -30 11 -50 25 -48
33 -66 32 -82 -5z"/>
<path d="M896 2149 c-14 -11 -26 -28 -26 -38 0 -40 69 -68 98 -39 20 20 14 65
-10 82 -29 20 -30 20 -62 -5z"/>
<path d="M1910 2163 c-21 -7 -40 -33 -40 -54 0 -40 69 -66 98 -37 20 20 14 65
-10 82 -24 17 -25 17 -48 9z"/>
<path d="M2621 2112 c-1 -7 -36 -29 -78 -50 -43 -20 -79 -38 -81 -39 -6 -2 27
-60 43 -77 22 -22 83 -20 122 4 46 28 52 61 20 124 -14 28 -26 45 -26 38z m24
-82 c0 -28 -6 -38 -34 -57 -40 -27 -77 -29 -103 -6 -29 26 -22 36 45 71 76 39
92 38 92 -8z"/>
<path d="M283 2064 c-3 -9 -13 -14 -24 -11 -11 3 -19 0 -19 -6 1 -17 26 -48
33 -41 3 4 27 -4 52 -16 25 -12 51 -20 59 -17 16 6 27 45 15 53 -5 3 -9 -2 -9
-10 0 -21 -21 -20 -65 1 -37 18 -43 31 -23 51 9 9 9 12 0 12 -7 0 -15 -7 -19
-16z"/>
<path d="M2711 1881 c-10 -6 -10 -10 -1 -16 13 -8 24 -1 19 14 -3 6 -10 7 -18
2z"/>
<path d="M2660 1872 c0 -10 -88 -38 -107 -34 -10 2 -10 -3 -2 -22 10 -20 14
-22 25 -12 7 8 33 20 58 27 44 13 58 30 36 44 -5 3 -10 2 -10 -3z"/>
<path d="M120 1837 c0 -10 11 -17 28 -19 24 -3 27 -6 24 -38 -4 -47 15 -70 64
-77 47 -6 69 13 62 51 -3 15 0 27 8 30 8 3 14 12 14 20 0 9 -6 13 -14 10 -8
-3 -43 2 -78 11 -105 28 -108 29 -108 12z m151 -55 c32 -26 20 -52 -25 -52
-47 0 -83 39 -59 63 13 13 61 7 84 -11z"/>
<path d="M2650 1734 c-6 -14 -10 -29 -10 -33 0 -5 -6 -14 -14 -20 -21 -18 -44
14 -28 40 10 16 9 19 -3 19 -17 0 -19 -27 -5 -65 7 -19 16 -26 31 -23 22 3 28
11 48 60 7 19 15 26 26 22 18 -7 20 -35 3 -52 -9 -9 -8 -12 5 -12 22 0 23 52
1 74 -23 23 -43 20 -54 -10z"/>
<path d="M586 1727 c-11 -8 -18 -26 -18 -42 0 -58 75 -74 100 -22 26 54 -33
100 -82 64z"/>
<path d="M2196 1724 c-21 -21 -20 -57 2 -77 24 -22 55 -21 75 1 34 37 11 92
-38 92 -13 0 -31 -7 -39 -16z"/>
<path d="M154 1632 c-18 -12 -24 -43 -12 -65 15 -30 27 -37 70 -37 27 0 40 5
48 19 13 26 13 68 -1 77 -8 5 -10 -1 -5 -19 7 -28 -14 -57 -41 -57 -12 0 -14
10 -11 45 3 40 1 45 -17 45 -11 0 -25 -4 -31 -8z m36 -42 c0 -20 -5 -30 -15
-30 -18 0 -30 24 -21 45 10 28 36 17 36 -15z"/>
<path d="M2718 1598 c-2 -6 -25 -12 -51 -15 -56 -7 -75 -29 -51 -59 12 -15 15
-15 11 -3 -8 25 13 39 59 39 36 0 43 -3 47 -22 4 -20 4 -19 6 5 0 17 7 27 16
27 23 0 18 14 -10 26 -15 8 -25 8 -27 2z"/>
<path d="M131 1458 c-1 -21 -6 -28 -21 -28 -11 0 -20 -4 -20 -10 0 -5 9 -10
20 -10 11 0 20 -6 20 -12 0 -10 2 -10 8 -1 4 6 32 13 62 15 49 3 55 6 58 27 2
13 -1 28 -8 35 -8 8 -10 7 -5 -6 9 -22 -26 -40 -68 -36 -23 2 -33 9 -38 28
l-7 25 -1 -27z"/>
<path d="M2610 1431 c0 -20 3 -22 12 -13 7 7 38 12 70 12 40 0 58 4 58 13 0 8
-21 12 -70 12 -68 0 -70 -1 -70 -24z"/>
<path d="M2780 1434 c0 -8 5 -12 10 -9 6 3 10 10 10 16 0 5 -4 9 -10 9 -5 0
-10 -7 -10 -16z"/>
<path d="M2607 1329 c-5 -17 1 -19 43 -19 51 0 77 -18 66 -46 -5 -14 -15 -15
-53 -10 -26 3 -50 12 -55 19 -5 9 -8 7 -8 -5 0 -9 -2 -22 -5 -30 -4 -10 8 -13
52 -12 90 2 86 0 81 39 -2 19 0 35 4 35 4 0 8 8 8 18 0 15 -6 18 -28 14 -16
-2 -45 1 -65 6 -31 9 -36 8 -40 -9z"/>
<path d="M250 1330 c-8 -5 -39 -10 -68 -10 -46 0 -53 -3 -50 -17 3 -10 10 -16
19 -13 8 2 38 5 67 5 47 0 52 2 52 23 0 25 0 25 -20 12z"/>
<path d="M80 1300 c0 -5 7 -10 15 -10 8 0 15 5 15 10 0 6 -7 10 -15 10 -8 0
-15 -4 -15 -10z"/>
<path d="M271 1233 c-1 -6 -24 -17 -51 -24 -65 -17 -78 -31 -56 -64 9 -14 14
-30 11 -35 -10 -16 5 -32 18 -21 13 10 85 26 103 23 7 -1 9 8 7 22 -5 22 -7
23 -20 11 -8 -8 -23 -15 -33 -15 -10 0 -25 -3 -33 -6 -8 -3 -22 3 -31 12 -15
15 -16 19 -3 32 8 8 36 17 61 19 25 3 46 8 45 12 -1 15 -18 45 -18 34z"/>
<path d="M581 1194 c-30 -38 -9 -84 40 -84 39 0 66 39 48 72 -24 46 -58 51
-88 12z"/>
<path d="M2200 1200 c-24 -24 -26 -53 -4 -74 18 -19 65 -21 82 -4 20 20 14 65
-10 82 -30 21 -44 20 -68 -4z"/>
<path d="M2521 1164 c-36 -45 -23 -104 22 -104 12 0 24 13 34 40 21 53 43 54
36 0 -5 -37 -4 -41 26 -53 17 -7 28 -16 24 -20 -3 -4 -2 -7 4 -7 13 0 33 53
33 87 0 25 -38 47 -64 37 -8 -3 -17 -1 -21 5 -3 6 -14 11 -25 11 -10 0 -20 7
-24 15 -8 22 -22 18 -45 -11z m41 -39 c-5 -41 -18 -53 -39 -32 -14 13 -15 21
-5 42 17 37 48 30 44 -10z m123 -30 c0 -13 -8 -21 -24 -23 -28 -4 -46 11 -37
33 9 25 61 16 61 -10z"/>
<path d="M231 1000 c-24 -11 -52 -20 -63 -20 -14 0 -18 -5 -14 -16 3 -9 6 -17
6 -19 0 -2 24 8 53 22 28 14 68 28 88 30 32 5 38 2 44 -17 5 -16 2 -28 -11
-40 -26 -23 -122 -62 -135 -54 -8 4 -9 -1 -4 -17 10 -31 15 -36 23 -22 4 6 32
21 62 33 74 31 80 37 80 75 0 63 -50 80 -129 45z"/>
<path d="M2523 983 c-7 -2 -13 -17 -13 -33 0 -16 -7 -30 -15 -34 -8 -3 -15
-10 -15 -16 0 -6 4 -9 9 -6 5 4 33 -6 61 -20 41 -21 54 -23 61 -13 5 9 -2 16
-27 25 -45 15 -64 32 -64 55 0 23 33 25 70 4 33 -19 56 -19 64 1 4 10 1 14 -6
11 -7 -2 -32 4 -56 15 -46 19 -49 20 -69 11z"/>
<path d="M2435 822 c-3 -8 -4 -15 -3 -16 9 -3 48 -25 78 -44 l36 -21 13 21
c11 18 11 20 -3 15 -9 -4 -36 8 -65 27 -41 28 -51 31 -56 18z"/>
<path d="M884 765 c-32 -49 23 -104 75 -75 24 12 29 68 9 88 -21 21 -66 14
-84 -13z"/>
<path d="M1885 770 c-35 -39 7 -99 61 -86 29 8 41 47 25 82 -13 30 -60 33 -86
4z"/>
<path d="M2367 725 c-36 -50 -4 -93 49 -65 26 14 58 6 52 -13 -3 -6 -14 -13
-26 -15 -24 -4 -29 -17 -11 -28 15 -9 48 34 49 62 0 29 -24 37 -65 20 -26 -11
-36 -12 -44 -2 -12 14 0 36 23 40 20 3 23 20 4 23 -7 2 -21 -9 -31 -22z"/>
<path d="M2575 740 c-4 -6 -3 -16 3 -22 6 -6 12 -6 17 2 4 6 3 16 -3 22 -6 6
-12 6 -17 -2z"/>
<path d="M400 733 c0 -5 9 -19 19 -32 22 -29 36 -13 15 17 -15 21 -34 30 -34
15z"/>
<path d="M2277 622 c-18 -19 -18 -20 0 -26 26 -8 66 -64 59 -82 -12 -32 -64
-5 -93 49 -9 17 -10 17 -28 -3 -13 -14 -14 -20 -4 -20 7 0 30 -16 50 -36 40
-39 72 -40 84 -3 7 20 8 20 36 -7 28 -26 30 -27 46 -11 14 14 15 17 2 17 -16
0 -124 106 -131 128 -2 10 -8 8 -21 -6z"/>
<path d="M1383 604 c-15 -24 -15 -29 -2 -53 27 -49 99 -35 99 19 0 59 -65 82
-97 34z"/>
<path d="M589 602 c17 -12 7 -43 -24 -72 -24 -23 -25 -23 -45 -5 -11 10 -20
13 -20 8 0 -6 7 -16 15 -23 12 -10 13 -16 4 -27 -16 -18 -10 -22 23 -16 15 3
25 10 22 15 -4 5 11 28 32 49 32 32 37 43 28 57 -6 9 -20 18 -30 20 -14 2 -16
1 -5 -6z"/>
<path d="M662 474 c-34 -55 -34 -79 1 -90 11 -4 29 -16 39 -28 15 -19 17 -19
18 -3 0 21 49 97 63 97 5 0 4 7 -3 15 -16 19 -30 19 -30 0 0 -25 -55 -79 -73
-72 -26 10 -20 40 16 79 28 31 30 37 17 45 -12 8 -22 -1 -48 -43z"/>
<path d="M2108 478 c-17 -14 -31 -48 -20 -48 4 0 13 9 20 20 14 23 44 26 61 6
10 -11 5 -19 -21 -37 -18 -12 -35 -24 -37 -26 -11 -8 25 -33 48 -33 35 0 51
17 51 55 0 57 -61 95 -102 63z m80 -75 c-3 -30 -16 -37 -38 -23 -12 7 -12 12
4 29 26 28 38 26 34 -6z"/>
<path d="M868 395 c21 -9 32 -21 32 -34 0 -29 -15 -34 -50 -16 -36 18 -50 13
-50 -19 0 -49 69 -67 102 -26 37 46 12 110 -43 110 -22 -1 -21 -2 9 -15z m-13
-67 c31 -14 28 -32 -8 -36 -23 -3 -27 0 -27 22 0 30 0 30 35 14z"/>
<path d="M1965 385 c-12 -14 -25 -21 -27 -15 -2 7 -10 5 -23 -4 -16 -12 -17
-15 -5 -16 10 0 32 -32 55 -80 27 -55 44 -79 53 -75 7 3 16 5 18 5 2 0 -5 9
-16 20 -26 26 -25 34 5 48 43 20 45 77 4 120 -26 28 -35 28 -64 -3z m60 -35
c20 -39 19 -57 -4 -70 -16 -8 -23 -5 -40 16 -21 26 -28 64 -14 77 15 16 44 5
58 -23z"/>
<path d="M995 340 c4 -6 -7 -45 -24 -86 -35 -86 -38 -104 -16 -104 8 0 15 7
15 16 0 25 41 136 57 155 12 14 12 17 -2 23 -24 9 -37 7 -30 -4z"/>
<path d="M1563 325 c-11 -8 -33 -49 -48 -92 -15 -43 -32 -84 -38 -90 -7 -10
-3 -13 14 -13 21 0 24 5 24 40 1 60 21 73 40 26 9 -20 13 -41 10 -46 -4 -6 5
-10 18 -10 l25 0 -33 68 c-35 71 -33 102 5 102 11 0 20 4 20 9 0 18 -17 20
-37 6z"/>
<path d="M1092 302 c1 -9 -2 -39 -6 -66 -7 -37 -5 -50 5 -57 18 -11 79 -12 79
0 0 5 -15 8 -32 7 -27 -1 -34 3 -36 22 -3 20 1 22 36 22 47 0 72 22 55 48 -7
11 -23 16 -42 16 -17 -1 -31 2 -31 6 0 4 -7 10 -15 14 -10 3 -14 -1 -13 -12z
m77 -25 c13 -16 -4 -37 -30 -37 -26 0 -32 16 -13 34 19 19 28 20 43 3z"/>
<path d="M1710 300 c-34 -8 -60 -33 -60 -57 0 -8 7 -29 14 -48 15 -35 34 -43
70 -29 24 9 19 23 -5 17 -28 -8 -49 20 -49 63 0 56 54 56 65 1 16 -85 31 -130
43 -134 18 -7 27 4 15 19 -5 7 -18 50 -29 96 -10 45 -21 82 -24 81 -3 -1 -21
-5 -40 -9z"/>
<path d="M1245 270 c-3 -5 3 -10 14 -10 18 0 21 -6 21 -50 0 -48 -1 -50 -27
-51 -27 0 -27 -1 -5 -9 12 -5 22 -16 22 -25 0 -20 6 -19 30 5 11 11 15 20 9
20 -7 0 -9 16 -4 50 5 34 3 55 -5 65 -14 17 -46 20 -55 5z"/>
</g>
</svg>
